<svg id="visual" viewBox="0 0 900 600" width="900" height="600" xmlns="http://www.w3.org/2000/svg" xmlns:xlink="http://www.w3.org/1999/xlink" version="1.1"><path d="M0 43L82 91L164 43L245 61L327 61L409 67L491 103L573 67L655 55L736 55L818 49L900 43L900 0L818 0L736 0L655 0L573 0L491 0L409 0L327 0L245 0L164 0L82 0L0 0Z" fill="#00cc8e"></path><path d="M0 247L82 289L164 235L245 361L327 187L409 331L491 235L573 277L655 199L736 289L818 163L900 181L900 41L818 47L736 53L655 53L573 65L491 101L409 65L327 59L245 59L164 41L82 89L0 41Z" fill="#00b98a"></path><path d="M0 349L82 397L164 337L245 427L327 283L409 397L491 277L573 337L655 313L736 373L818 265L900 253L900 179L818 161L736 287L655 197L573 275L491 233L409 329L327 185L245 359L164 233L82 287L0 245Z" fill="#00a784"></path><path d="M0 523L82 481L164 457L245 541L327 445L409 511L491 463L573 439L655 487L736 511L818 535L900 487L900 251L818 263L736 371L655 311L573 335L491 275L409 395L327 281L245 425L164 335L82 395L0 347Z" fill="#00957c"></path><path d="M0 601L82 601L164 601L245 601L327 601L409 601L491 601L573 601L655 601L736 601L818 601L900 601L900 485L818 533L736 509L655 485L573 437L491 461L409 509L327 443L245 539L164 455L82 479L0 521Z" fill="#038373"></path></svg>